<svg xmlns="http://www.w3.org/2000/svg" viewBox="0 0 2813.036 408.385">  
    <path d="M2813.036,408.385c-8.535-11.174-17.303-22.599-26.374-34.335-137.876-178.38-315.144-311.515-571.218-356.661-256.073-45.146-528.595-1.158-728.748,117.628-156.781,93.046-335.228,121.243-494.219,129.669-167.316,8.868-384.081-12.041-557.198-26.64-173.118-14.599-327.053,5.709-398.436,125.375-8.521,14.285-14.876,29.521-20.666,44.965h2796.857Z" fill="#fff" opacity=".2"/>
    <path d="M2666.56,408.385c-109.127-117.487-246.827-207.156-429.299-253.931-251.879-64.566-526.963-41.514-735.602,61.642-163.428,80.804-343.506,95.293-502.676,91.556-167.505-3.933-382.041-41.331-553.538-69.106-171.498-27.775-326.534-19.279-406.845,94.588-16.408,23.265-26.706,49.79-38.6,75.251h2666.56Z" fill="#fff"/>
</svg>