<svg xmlns="http://www.w3.org/2000/svg" viewBox="0 0 2938.952 604">
    <path d="M90.06,0c56.134,9.119,107.54,24.528,151.118,48.637,174.302,96.428,157.177,292.187,279.322,421.292,178.676,181.929,501.487,152.65,815.9,65.192,296.616-82.507,548.773-83.087,847.471-87.623,181.172-2.751,383.273-10.969,535.117-99.438,150.339-87.593,200.034-224.724,219.964-348.061H90.06Z" fill="#fff" opacity=".2"/>
    <path d="M0,0v14.966c65.754,5.563,126.264,19.111,177.107,44.398,178.355,88.706,169.816,285.026,297.495,408.662,186.468,173.934,507.688,130.552,817.972,29.416,292.721-95.412,544.611-107.029,842.823-124.635,180.878-10.679,382.426-27.735,530.251-122.766,105.055-67.536,157.184-158.3,183.61-250.041H0Z" fill="#fff"/>
</svg>